# xmcd
#
# Track frame offsets:
#	150
#	17573
#	37988
#	51704
#	69823
#	89321
#	107681
#	127704
#	149073
#	165097
#	182857
#
# Disc length: 2694 seconds
#
# Revision: 0
# Processed by: cddbd v1.4PL0 Copyright (c) Steve Scherf et al.
# Submitted via: dBpowerAMP V4.0
#
DISCID=8a0a840b
DTITLE=Sonny Landreth - Outward Bound
DYEAR=1992
DGENRE=Blues
TTITLE0=Soldier Of Fortune
TTITLE1=Back To Bayou Teche
TTITLE2=When You're Away
TTITLE3=Sacred Ground
TTITLE4=New Landlord
TTITLE5=Speak Of The Devil
TTITLE6=Yokamoma
TTITLE7=Planet Cannonball
TTITLE8=Common Law-Love
TTITLE9=Bad Weather
TTITLE10=Outward Bound
EXTD=
EXTT0=
EXTT1=
EXTT2=
EXTT3=
EXTT4=
EXTT5=
EXTT6=
EXTT7=
EXTT8=
EXTT9=
EXTT10=
PLAYORDER=
